<?xml version="1.0" encoding="utf-8"?>
<!-- Generator: Adobe Illustrator 17.0.0, SVG Export Plug-In . SVG Version: 6.00 Build 0)  -->
<!DOCTYPE svg PUBLIC "-//W3C//DTD SVG 1.1//EN" "http://www.w3.org/Graphics/SVG/1.1/DTD/svg11.dtd">
<svg version="1.1" id="Слой_1" xmlns="http://www.w3.org/2000/svg" xmlns:xlink="http://www.w3.org/1999/xlink" x="0px" y="0px"
width="100%" height="600px" viewBox="0 0 404.8 416.54" enable-background="new 0 0 404.8 416.54" xml:space="preserve">
<g>
<path fill="#1A243B" d="M404.8,410.54c0,2.761-2.239,5-5,5H5c-2.761,0-5-2.239-5-5v-265c0-2.761,2.239-5,5-5h394.8
c2.761,0,5,2.239,5,5V410.54z"/>
</g>
<path fill="#E10F21" d="M277.58,195h-7v-54.46c0-57.317-3.639-88.815-12.951-108.72c-9.932-21.225-26.416-30.28-55.309-30.28
c-28.924,0-45.608,8.999-55.506,30.088c-9.314,19.847-13.234,51.401-13.234,108.912V195h-7v2h7v219h9V197h7v-2h-7v-54.46
c0-104.486,11.838-130,59.66-130c25.211,0,38.817,7.271,47.157,25.095c8.711,18.616,12.183,49.009,12.183,104.905V195h-7v2h7v219h9
V197h7V195z"/>
</svg>
