<?xml version="1.0" encoding="utf-8"?>
<!-- Generator: Adobe Illustrator 17.0.0, SVG Export Plug-In . SVG Version: 6.00 Build 0)  -->
<!DOCTYPE svg PUBLIC "-//W3C//DTD SVG 1.1//EN" "http://www.w3.org/Graphics/SVG/1.1/DTD/svg11.dtd">
<svg version="1.1" id="Слой_1" xmlns="http://www.w3.org/2000/svg" xmlns:xlink="http://www.w3.org/1999/xlink" x="0px" y="0px"
width="100%" height="600px" viewBox="0 0 404.8 416.54" enable-background="new 0 0 404.8 416.54" xml:space="preserve">
<g>
<path fill="#1A243B" d="M404.783,410.467c0,2.761-2.239,5-5,5H4.983c-2.761,0-5-2.239-5-5v-265c0-2.761,2.239-5,5-5h394.8
c2.761,0,5,2.239,5,5V410.467z"/>
</g>
<path fill="#0B1327" d="M402.525,144.657c-0.588-0.586-1.54-0.445-2.128,0.141L373.246,172H205.974h-5.184H33.519L6.368,144.798
c-0.588-0.586-1.54-0.657-2.128-0.071c-0.588,0.585-0.588,1.5,0,2.086l27.592,27.624c0.282,0.281,0.665,0.563,1.064,0.563H200.79
h0.79v108h-30v4h63v-4h-29V175h0.394h167.894c0.399,0,0.782-0.299,1.064-0.581l27.592-27.571
C403.113,146.263,403.113,145.242,402.525,144.657z"/>
<g>
<path fill="#E10F21" d="M401.86,142.907c-0.586-0.586-1.535-0.57-2.121,0.016L372.678,170H270.58v-29.533
c0-57.317-3.647-88.815-12.96-108.72c-9.931-21.225-26.42-30.28-55.313-30.28c-28.924,0-45.602,8.999-55.5,30.088
c-9.314,19.847-13.227,51.401-13.227,108.912V170H34.087L7.026,142.923c-0.586-0.586-1.535-0.594-2.121-0.008
c-0.586,0.585-0.586,1.532,0,2.117l27.5,27.514c0.281,0.281,0.663,0.454,1.061,0.454H133.58v22h-7v2h7v219h9V197h7v-2h-7v-22
h58.219h5.167h55.614v22h-7v2h7v219h9V197h7v-2h-7v-22h102.719c0.397,0,0.779-0.174,1.061-0.456l27.5-27.508
C402.446,144.451,402.446,143.492,401.86,142.907z M205.966,170h-5.167H142.58v-29.533c0-104.486,11.829-130,59.651-130
c25.212,0,38.821,7.271,47.161,25.095c8.711,18.616,12.188,49.009,12.188,104.905V170H205.966z"/>
<path fill="#E10F21" d="M237.588,272.065c0.099-0.771-0.436-1.483-1.207-1.601c-0.792-0.126-1.517,0.31-1.636,1.093
c-0.062,0.41-0.081,4.442-0.079,8.442H207.58V175h-3v108h30.09c0.002,1,0.004,2,0.007,3h-62.629c-0.003-1-0.005-2-0.007-3h29.539
V175h-3v105h-26.543c-0.004-4,0.009-7.538,0.05-8.042c0.099-0.771-0.435-1.429-1.207-1.547c-0.781-0.122-1.516,0.446-1.636,1.229
c-0.142,0.928-0.059,18.387-0.017,25.787c0.004,0.79,0.646,1.573,1.436,1.573c0.002,0,0.005,0,0.008,0
c0.793,0,1.432-0.705,1.427-1.497c-0.015-2.573-0.029-5.503-0.04-8.503h62.629c0.013,3,0.029,6.335,0.041,8.519
c0.005,0.79,0.646,1.481,1.436,1.481c0.003,0,0.006,0,0.008,0c0.793,0,1.433-0.783,1.428-1.575
C237.545,287.871,237.497,273.172,237.588,272.065z"/>
</g>
</svg>
