<?xml version="1.0" encoding="utf-8"?>
<!-- Generator: Adobe Illustrator 17.0.0, SVG Export Plug-In . SVG Version: 6.00 Build 0)  -->
<!DOCTYPE svg PUBLIC "-//W3C//DTD SVG 1.1//EN" "http://www.w3.org/Graphics/SVG/1.1/DTD/svg11.dtd">
<svg version="1.1" id="Слой_1" xmlns="http://www.w3.org/2000/svg" xmlns:xlink="http://www.w3.org/1999/xlink" x="0px" y="0px"
	 width="100%" height="600px" viewBox="0 0 405 416.54" enable-background="new 0 0 405 416.54" xml:space="preserve">
<path fill="#1A243B" d="M404.738,143.754l0.089-0.234l-22.183-41.304c-0.275-0.285-0.649-0.217-1.038-0.217H206.084h-5.059H24.504
	c-0.39,0-0.763-0.069-1.038,0.217L1.973,141.535c-0.355,0.314-0.668,0.602-0.914,0.968C0.523,143.3,0,144.435,0,145.467v265
	C0,413.229,2.659,415,5.42,415h394.8c2.761,0,4.78-1.771,4.78-4.533v-265C405,144.885,404.906,144.307,404.738,143.754z"/>
<polygon fill="none" points="201.189,111 30.405,111 13.954,140 393.387,140 376.95,110.637 "/>
<g>
	<path fill="#091228" d="M378.154,109.592c-0.271-0.285-0.64-0.592-1.023-0.592h-170.96h-4.984H30.228
		c-0.384,0-0.752,0.306-1.023,0.592L12.281,140h382.829L378.154,109.592z"/>
	<rect x="14" y="151" fill="#091228" width="179" height="10"/>
	<rect x="213" y="151" fill="#091228" width="179" height="10"/>
</g>
<g>
	<polygon fill="#0B1327" points="234.427,286.238 171.594,286.238 171.594,282.238 201.052,282.238 201.052,140.467
		205.052,140.467 205.052,282.238 234.427,282.238 	"/>
</g>
<g>
	<path fill="none" stroke="#E10F21" stroke-width="3" stroke-miterlimit="10" d="M235.286,291.075"/>
</g>
<g>
	<path fill="none" stroke="#E10F21" stroke-width="3" stroke-miterlimit="10" d="M169.816,292.075"/>
</g>
<g>
	<rect x="29.68" y="120.467" width="348" height="10.5"/>
</g>
<path fill="#E10F21" d="M405,147v-3H271v-3.533c0-10.747,0.027-20.586-0.252-29.611l106.122-0.219L393.387,140h3.35
	c-0.113,0-0.279-0.407-0.507-0.684l-16.884-30.409l-0.226-0.161c-0.545-0.567-1.303-0.747-2.08-0.747h-106.23
	c-1.308-37.411-5.223-60.48-12.602-76.252c-9.932-21.225-26.496-30.28-55.389-30.28c-28.924,0-45.488,8.999-55.386,30.088
	C140.046,47.297,136.13,70.419,134.826,108H30.319c-0.778,0-1.537,0.239-2.081,0.806l-0.132,0.095L11.13,139.337
	c-0.228,0.277-0.395,0.663-0.508,0.663h3.331l16.452-29h104.32c-0.274,8.988-0.725,18.777-0.725,29.467V144H0v3h134v48h-7v2h7v219h9
	V197h7v-2h-7v-48h55v133h-26.309c-0.004-4,0.009-7.715,0.05-8.22c0.099-0.771-0.435-1.518-1.207-1.636
	c-0.784-0.121-1.517,0.402-1.636,1.185c-0.142,0.928-0.059,18.042-0.017,25.442c0.004,0.79,0.646,1.228,1.436,1.228
	c0.002,0,0.005,0,0.008,0c0.793,0,1.432-0.705,1.427-1.497c-0.015-2.573-0.029-5.503-0.04-8.503h62.629
	c0.013,4,0.029,6.336,0.041,8.519c0.005,0.79,0.646,1.481,1.436,1.481c0.003,0,0.006,0,0.008,0c0.793,0,1.433-0.46,1.428-1.252
	c-0.055-9.551-0.103-24.022-0.012-25.131c0.1-0.771-0.434-1.436-1.206-1.554c-0.789-0.125-1.517,0.51-1.637,1.293
	c-0.063,0.41-0.082,3.644-0.079,8.644H208V147h54v48h-7v2h7v219h9V197h7v-2h-7v-48H405z M202.82,10.467
	c25.211,0,38.897,7.271,47.237,25.095c6.849,14.638,10.508,36.566,11.76,72.438H143.805C146.423,30.55,160.402,10.467,202.82,10.467
	z M208,144v-4h-3v143h29.324c0.002,1,0.004,2,0.007,2h-62.629c-0.003,0-0.005-1-0.007-2H201V140h-3v4h-55v-3.533
	c0-10.625,0.443-20.419,0.71-29.467h57.479l60.561-0.125c0.276,8.984,0.25,18.809,0.25,29.593V144H208z"/>
</svg>
