<?xml version="1.0" encoding="utf-8"?>
<!-- Generator: Adobe Illustrator 17.0.0, SVG Export Plug-In . SVG Version: 6.00 Build 0)  -->
<!DOCTYPE svg PUBLIC "-//W3C//DTD SVG 1.1//EN" "http://www.w3.org/Graphics/SVG/1.1/DTD/svg11.dtd">
<svg version="1.1" id="Слой_1" xmlns="http://www.w3.org/2000/svg" xmlns:xlink="http://www.w3.org/1999/xlink" x="0px" y="0px"
	 width="599px" height="200px" viewBox="0 0 599 200" enable-background="new 0 0 599 200" xml:space="preserve">
<path d="M6.2,26.597c19.115-0.615,38.227-1.342,57.345-1.813c17.31-0.426,34.626-0.645,51.942-0.788
	c3.723-0.031,6.419-1.126,8.096-4.549c1.879-3.835,4.467-3.472,6.261-0.26c2.379,4.257,5.607,4.326,9.981,4.343
	c6.42,0.025,11.625-0.88,15.338-6.73c1.827-2.879,4.634-2.292,5.783,0.672c2.381,6.143,7.305,5.423,12.332,5.681
	c5.259,0.27,9.402-0.699,12.032-5.712c1.769-3.371,4.561-3.374,5.924-0.101c2.538,6.096,7.276,5.448,12.361,5.524
	c5.138,0.077,9.588-0.441,12.327-5.426c0.549-1,1.272-1.905,1.781-2.656c1.23,0.542,1.942,0.627,2.072,0.947
	c2.77,6.836,8.484,6.387,14.448,6.384c65.641-0.035,131.281,0.177,196.922,0.102c18.309-0.021,36.618-0.701,54.922-1.262
	c2.214-0.068,4.477-1.089,6.576-1.995c15.558-6.717,31.647-10.583,48.591-7.514c27.31,4.947,43.438,21.556,48.663,49.321
	c8.866,47.117-14.645,93.333-58.914,116.181c-23.971,12.372-49.65,17.048-76.272,16.692c-50.476-0.675-97.352-13.734-139.027-42.884
	c-23.293-16.293-40.793-38.19-56.031-61.839c-9.276-14.397-17.52-29.459-26.222-44.225c-0.337-0.572-0.612-1.181-0.929-1.766
	c-5.905-10.897-10.311-13.298-22.243-10.987c-2.385,0.462-4.612,2.994-6.396,5.025c-2.849,3.244-4.908,3.274-7.358-0.401
	c-4.212-6.32-16.114-7.073-21.402-1.515c-0.803,0.844-1.58,1.716-2.33,2.608c-2.154,2.56-4.561,2.572-5.965-0.331
	c-2.2-4.549-5.692-5.016-10.174-5.061c-6.175-0.062-11.811-0.044-15.757,5.926c-1.835,2.776-4.327,1.408-5.507-0.978
	c-2.234-4.517-5.901-4.785-10.342-4.913c-37.766-1.092-75.525-2.416-113.285-3.708C9.939,28.527,6.249,27.019,6.2,26.597z
	 M232.093,33c0.092,0.257,0.307,1.393,0.861,2.33c11.697,19.759,22.682,39.99,35.333,59.121
	c19.682,29.764,44.65,54.048,77.318,69.784c30.854,14.862,63.277,23.517,97.388,25.425c29.66,1.659,58.514-2.047,85.404-15.788
	c43.045-21.997,66.206-66.465,57.796-111.553c-3.051-16.36-9.539-30.83-25.025-39.543c-19.805-11.144-40.07-10.414-60.665-2.677
	c-0.316,0.119-0.433,0.766-0.664,1.208c6.919,0.79,13.685,1.47,20.42,2.38c2.581,0.349,6.107,0.786,5.371,4.338
	c-0.325,1.569-3.457,3.492-5.43,3.633c-13.935,0.99-27.909,1.414-41.847,2.373c-3.125,0.215-6.766,1.06-9.119,2.935
	c-10.275,8.184-20.137,16.884-30.226,25.304c-1.093,0.913-2.681,1.233-4.039,1.828c0.458-1.522,0.44-3.566,1.448-4.485
	c8.116-7.396,16.424-14.581,24.676-21.826c1.155-1.014,2.331-2.006,3.497-3.008c-0.139-0.593-0.277-1.185-0.416-1.778
	C386.825,33,309.476,33,232.093,33z M508.493,27.667c-12.4-5.074-20.894-4.874-27.402,3.302
	C490.654,30.541,499.959,32.063,508.493,27.667z M458.799,25.083c5.186,7.238,15.548,5.876,22.581-1.947
	C473.295,23.833,466.047,24.458,458.799,25.083z"/>
<path d="M9.939,28.527"/>
</svg>
